<mxfile host="app.diagrams.net" modified="2023-09-01T18:28:28.453Z" agent="Mozilla/5.0 (Windows NT 10.0; Win64; x64) AppleWebKit/537.36 (KHTML, like Gecko) Chrome/116.0.0.0 Safari/537.36" etag="tF5oRMucucAT_eAfABuT" version="21.7.2" type="device">
  <diagram id="INVIZvrE2KBBbGmbX691" name="Page-1">
    <mxGraphModel dx="1050" dy="574" grid="1" gridSize="10" guides="1" tooltips="1" connect="1" arrows="1" fold="1" page="1" pageScale="1" pageWidth="850" pageHeight="1100" math="0" shadow="0">
      <root>
        <mxCell id="0" />
        <mxCell id="1" parent="0" />
        <mxCell id="HcXDAk4co6BFIyga0vMn-15" value="Ingrediente" style="html=1;" parent="1" vertex="1">
          <mxGeometry x="370" y="580" width="110" height="50" as="geometry" />
        </mxCell>
        <mxCell id="HcXDAk4co6BFIyga0vMn-39" style="edgeStyle=orthogonalEdgeStyle;rounded=0;orthogonalLoop=1;jettySize=auto;html=1;endArrow=none;endFill=0;" parent="1" source="HcXDAk4co6BFIyga0vMn-16" target="HcXDAk4co6BFIyga0vMn-37" edge="1">
          <mxGeometry relative="1" as="geometry" />
        </mxCell>
        <mxCell id="HcXDAk4co6BFIyga0vMn-16" value="Cardapio" style="html=1;" parent="1" vertex="1">
          <mxGeometry x="80" y="400" width="110" height="50" as="geometry" />
        </mxCell>
        <mxCell id="HcXDAk4co6BFIyga0vMn-45" style="edgeStyle=orthogonalEdgeStyle;rounded=0;orthogonalLoop=1;jettySize=auto;html=1;entryX=1;entryY=0.5;entryDx=0;entryDy=0;endArrow=none;endFill=0;" parent="1" source="HcXDAk4co6BFIyga0vMn-18" target="HcXDAk4co6BFIyga0vMn-37" edge="1">
          <mxGeometry relative="1" as="geometry" />
        </mxCell>
        <mxCell id="9sg7S3EA_mHytwgNz2Ep-22" style="edgeStyle=orthogonalEdgeStyle;rounded=0;orthogonalLoop=1;jettySize=auto;html=1;entryX=0;entryY=1;entryDx=0;entryDy=0;exitX=1.018;exitY=0.145;exitDx=0;exitDy=0;exitPerimeter=0;endArrow=none;endFill=0;" parent="1" source="HcXDAk4co6BFIyga0vMn-18" target="9sg7S3EA_mHytwgNz2Ep-19" edge="1">
          <mxGeometry relative="1" as="geometry" />
        </mxCell>
        <mxCell id="9sg7S3EA_mHytwgNz2Ep-23" style="edgeStyle=orthogonalEdgeStyle;rounded=0;orthogonalLoop=1;jettySize=auto;html=1;exitX=1;exitY=0.5;exitDx=0;exitDy=0;entryX=0;entryY=0.5;entryDx=0;entryDy=0;endArrow=none;endFill=0;" parent="1" source="HcXDAk4co6BFIyga0vMn-18" target="9sg7S3EA_mHytwgNz2Ep-20" edge="1">
          <mxGeometry relative="1" as="geometry" />
        </mxCell>
        <mxCell id="9sg7S3EA_mHytwgNz2Ep-24" style="edgeStyle=orthogonalEdgeStyle;rounded=0;orthogonalLoop=1;jettySize=auto;html=1;exitX=1;exitY=0.75;exitDx=0;exitDy=0;entryX=0;entryY=0;entryDx=0;entryDy=0;endArrow=none;endFill=0;" parent="1" source="HcXDAk4co6BFIyga0vMn-18" target="9sg7S3EA_mHytwgNz2Ep-21" edge="1">
          <mxGeometry relative="1" as="geometry" />
        </mxCell>
        <mxCell id="HcXDAk4co6BFIyga0vMn-18" value="Porcao" style="html=1;" parent="1" vertex="1">
          <mxGeometry x="370" y="400" width="110" height="50" as="geometry" />
        </mxCell>
        <mxCell id="HcXDAk4co6BFIyga0vMn-21" style="edgeStyle=orthogonalEdgeStyle;rounded=0;orthogonalLoop=1;jettySize=auto;html=1;endArrow=none;endFill=0;" parent="1" source="HcXDAk4co6BFIyga0vMn-20" target="HcXDAk4co6BFIyga0vMn-15" edge="1">
          <mxGeometry relative="1" as="geometry" />
        </mxCell>
        <mxCell id="HcXDAk4co6BFIyga0vMn-22" style="edgeStyle=orthogonalEdgeStyle;rounded=0;orthogonalLoop=1;jettySize=auto;html=1;endArrow=none;endFill=0;" parent="1" source="HcXDAk4co6BFIyga0vMn-20" target="HcXDAk4co6BFIyga0vMn-18" edge="1">
          <mxGeometry relative="1" as="geometry" />
        </mxCell>
        <mxCell id="HcXDAk4co6BFIyga0vMn-20" value="leva" style="shape=rhombus;perimeter=rhombusPerimeter;whiteSpace=wrap;html=1;align=center;" parent="1" vertex="1">
          <mxGeometry x="365" y="480" width="120" height="60" as="geometry" />
        </mxCell>
        <mxCell id="HcXDAk4co6BFIyga0vMn-25" style="edgeStyle=orthogonalEdgeStyle;rounded=0;orthogonalLoop=1;jettySize=auto;html=1;endArrow=none;endFill=0;exitX=0;exitY=0;exitDx=0;exitDy=0;entryX=0.25;entryY=1;entryDx=0;entryDy=0;" parent="1" source="HcXDAk4co6BFIyga0vMn-24" target="HcXDAk4co6BFIyga0vMn-15" edge="1">
          <mxGeometry relative="1" as="geometry">
            <mxPoint x="400" y="640" as="targetPoint" />
            <Array as="points">
              <mxPoint x="400" y="630" />
            </Array>
          </mxGeometry>
        </mxCell>
        <mxCell id="HcXDAk4co6BFIyga0vMn-26" style="edgeStyle=orthogonalEdgeStyle;rounded=0;orthogonalLoop=1;jettySize=auto;html=1;endArrow=none;endFill=0;" parent="1" edge="1">
          <mxGeometry relative="1" as="geometry">
            <mxPoint x="453" y="690" as="sourcePoint" />
            <mxPoint x="453" y="630" as="targetPoint" />
          </mxGeometry>
        </mxCell>
        <mxCell id="HcXDAk4co6BFIyga0vMn-24" value="compÃµe" style="shape=rhombus;perimeter=rhombusPerimeter;whiteSpace=wrap;html=1;align=center;" parent="1" vertex="1">
          <mxGeometry x="370" y="670" width="120" height="60" as="geometry" />
        </mxCell>
        <mxCell id="HcXDAk4co6BFIyga0vMn-27" value="Nutriente" style="whiteSpace=wrap;html=1;align=center;" parent="1" vertex="1">
          <mxGeometry x="680" y="585" width="100" height="40" as="geometry" />
        </mxCell>
        <mxCell id="HcXDAk4co6BFIyga0vMn-30" style="edgeStyle=orthogonalEdgeStyle;rounded=0;orthogonalLoop=1;jettySize=auto;html=1;endArrow=none;endFill=0;" parent="1" source="HcXDAk4co6BFIyga0vMn-29" target="HcXDAk4co6BFIyga0vMn-27" edge="1">
          <mxGeometry relative="1" as="geometry">
            <mxPoint x="660" y="605" as="targetPoint" />
          </mxGeometry>
        </mxCell>
        <mxCell id="HcXDAk4co6BFIyga0vMn-31" style="edgeStyle=orthogonalEdgeStyle;rounded=0;orthogonalLoop=1;jettySize=auto;html=1;endArrow=none;endFill=0;" parent="1" source="HcXDAk4co6BFIyga0vMn-29" target="HcXDAk4co6BFIyga0vMn-15" edge="1">
          <mxGeometry relative="1" as="geometry" />
        </mxCell>
        <mxCell id="HcXDAk4co6BFIyga0vMn-29" value="contem" style="shape=rhombus;perimeter=rhombusPerimeter;whiteSpace=wrap;html=1;align=center;" parent="1" vertex="1">
          <mxGeometry x="510" y="575" width="120" height="60" as="geometry" />
        </mxCell>
        <mxCell id="HcXDAk4co6BFIyga0vMn-37" value="inclui" style="shape=rhombus;perimeter=rhombusPerimeter;whiteSpace=wrap;html=1;align=center;" parent="1" vertex="1">
          <mxGeometry x="220" y="395" width="120" height="60" as="geometry" />
        </mxCell>
        <mxCell id="HcXDAk4co6BFIyga0vMn-46" value="Aluno" style="whiteSpace=wrap;html=1;align=center;" parent="1" vertex="1">
          <mxGeometry x="375" y="220" width="100" height="40" as="geometry" />
        </mxCell>
        <mxCell id="HcXDAk4co6BFIyga0vMn-50" style="edgeStyle=orthogonalEdgeStyle;rounded=0;orthogonalLoop=1;jettySize=auto;html=1;endArrow=none;endFill=0;" parent="1" source="HcXDAk4co6BFIyga0vMn-48" target="HcXDAk4co6BFIyga0vMn-46" edge="1">
          <mxGeometry relative="1" as="geometry">
            <mxPoint x="425" y="270" as="sourcePoint" />
          </mxGeometry>
        </mxCell>
        <mxCell id="OVF_8G7hKfbTYnZr6m1k-1" style="edgeStyle=orthogonalEdgeStyle;rounded=0;orthogonalLoop=1;jettySize=auto;html=1;exitX=0.5;exitY=1;exitDx=0;exitDy=0;entryX=0.5;entryY=0;entryDx=0;entryDy=0;endArrow=none;endFill=0;" parent="1" source="HcXDAk4co6BFIyga0vMn-48" target="HcXDAk4co6BFIyga0vMn-18" edge="1">
          <mxGeometry relative="1" as="geometry">
            <mxPoint x="425" y="300" as="targetPoint" />
          </mxGeometry>
        </mxCell>
        <mxCell id="HcXDAk4co6BFIyga0vMn-48" value="pede" style="shape=rhombus;perimeter=rhombusPerimeter;whiteSpace=wrap;html=1;align=center;" parent="1" vertex="1">
          <mxGeometry x="365" y="295" width="120" height="60" as="geometry" />
        </mxCell>
        <mxCell id="HcXDAk4co6BFIyga0vMn-54" value="&lt;font style=&quot;font-size: 14px;&quot;&gt;Subgrupo GATOS&lt;br style=&quot;font-size: 14px;&quot;&gt;&lt;/font&gt;" style="text;html=1;strokeColor=none;fillColor=none;align=center;verticalAlign=middle;whiteSpace=wrap;rounded=0;fontSize=14;" parent="1" vertex="1">
          <mxGeometry x="80" y="60" width="210" height="70" as="geometry" />
        </mxCell>
        <mxCell id="9sg7S3EA_mHytwgNz2Ep-7" style="edgeStyle=orthogonalEdgeStyle;rounded=0;orthogonalLoop=1;jettySize=auto;html=1;endArrow=none;endFill=0;" parent="1" source="9sg7S3EA_mHytwgNz2Ep-1" target="HcXDAk4co6BFIyga0vMn-46" edge="1">
          <mxGeometry relative="1" as="geometry" />
        </mxCell>
        <mxCell id="9sg7S3EA_mHytwgNz2Ep-1" value="nome" style="ellipse;whiteSpace=wrap;html=1;" parent="1" vertex="1">
          <mxGeometry x="425" y="140" width="60" height="30" as="geometry" />
        </mxCell>
        <mxCell id="9sg7S3EA_mHytwgNz2Ep-6" style="edgeStyle=orthogonalEdgeStyle;rounded=0;orthogonalLoop=1;jettySize=auto;html=1;entryX=0.25;entryY=0;entryDx=0;entryDy=0;strokeColor=default;endArrow=none;endFill=0;" parent="1" source="9sg7S3EA_mHytwgNz2Ep-3" target="HcXDAk4co6BFIyga0vMn-46" edge="1">
          <mxGeometry relative="1" as="geometry" />
        </mxCell>
        <mxCell id="9sg7S3EA_mHytwgNz2Ep-3" value="RA" style="ellipse;whiteSpace=wrap;html=1;fontStyle=4" parent="1" vertex="1">
          <mxGeometry x="355" y="140" width="60" height="30" as="geometry" />
        </mxCell>
        <mxCell id="9sg7S3EA_mHytwgNz2Ep-16" style="edgeStyle=orthogonalEdgeStyle;rounded=0;orthogonalLoop=1;jettySize=auto;html=1;entryX=0;entryY=0.75;entryDx=0;entryDy=0;endArrow=none;endFill=0;" parent="1" source="9sg7S3EA_mHytwgNz2Ep-15" target="HcXDAk4co6BFIyga0vMn-16" edge="1">
          <mxGeometry relative="1" as="geometry" />
        </mxCell>
        <mxCell id="9sg7S3EA_mHytwgNz2Ep-15" value="data" style="ellipse;whiteSpace=wrap;html=1;fontStyle=4" parent="1" vertex="1">
          <mxGeometry x="30" y="340" width="60" height="30" as="geometry" />
        </mxCell>
        <mxCell id="9sg7S3EA_mHytwgNz2Ep-18" style="edgeStyle=orthogonalEdgeStyle;rounded=0;orthogonalLoop=1;jettySize=auto;html=1;endArrow=none;endFill=0;entryX=0.36;entryY=0.016;entryDx=0;entryDy=0;entryPerimeter=0;" parent="1" source="9sg7S3EA_mHytwgNz2Ep-17" target="HcXDAk4co6BFIyga0vMn-16" edge="1">
          <mxGeometry relative="1" as="geometry">
            <mxPoint x="121" y="400" as="targetPoint" />
          </mxGeometry>
        </mxCell>
        <mxCell id="9sg7S3EA_mHytwgNz2Ep-17" value="refeicao" style="ellipse;whiteSpace=wrap;html=1;fontStyle=4" parent="1" vertex="1">
          <mxGeometry x="90" y="310" width="60" height="30" as="geometry" />
        </mxCell>
        <mxCell id="9sg7S3EA_mHytwgNz2Ep-19" value="id" style="ellipse;whiteSpace=wrap;html=1;fontStyle=4" parent="1" vertex="1">
          <mxGeometry x="509" y="370" width="60" height="30" as="geometry" />
        </mxCell>
        <mxCell id="9sg7S3EA_mHytwgNz2Ep-20" value="nome" style="ellipse;whiteSpace=wrap;html=1;fontStyle=0" parent="1" vertex="1">
          <mxGeometry x="550" y="410" width="60" height="30" as="geometry" />
        </mxCell>
        <mxCell id="9sg7S3EA_mHytwgNz2Ep-21" value="preco" style="ellipse;whiteSpace=wrap;html=1;fontStyle=0" parent="1" vertex="1">
          <mxGeometry x="510" y="440" width="60" height="30" as="geometry" />
        </mxCell>
        <mxCell id="9sg7S3EA_mHytwgNz2Ep-33" style="edgeStyle=orthogonalEdgeStyle;rounded=0;orthogonalLoop=1;jettySize=auto;html=1;entryX=0.5;entryY=0;entryDx=0;entryDy=0;endArrow=none;endFill=0;" parent="1" source="9sg7S3EA_mHytwgNz2Ep-32" target="HcXDAk4co6BFIyga0vMn-29" edge="1">
          <mxGeometry relative="1" as="geometry" />
        </mxCell>
        <mxCell id="9sg7S3EA_mHytwgNz2Ep-32" value="qtdPresente" style="ellipse;whiteSpace=wrap;html=1;fontStyle=0" parent="1" vertex="1">
          <mxGeometry x="530" y="510" width="80" height="38" as="geometry" />
        </mxCell>
        <mxCell id="9sg7S3EA_mHytwgNz2Ep-38" style="edgeStyle=orthogonalEdgeStyle;rounded=0;orthogonalLoop=1;jettySize=auto;html=1;endArrow=none;endFill=0;entryX=0.819;entryY=-0.03;entryDx=0;entryDy=0;entryPerimeter=0;" parent="1" source="9sg7S3EA_mHytwgNz2Ep-37" target="HcXDAk4co6BFIyga0vMn-27" edge="1">
          <mxGeometry relative="1" as="geometry" />
        </mxCell>
        <mxCell id="9sg7S3EA_mHytwgNz2Ep-37" value="valorReferencia" style="ellipse;whiteSpace=wrap;html=1;fontStyle=0" parent="1" vertex="1">
          <mxGeometry x="720" y="518" width="100" height="35" as="geometry" />
        </mxCell>
        <mxCell id="9sg7S3EA_mHytwgNz2Ep-41" style="edgeStyle=orthogonalEdgeStyle;rounded=0;orthogonalLoop=1;jettySize=auto;html=1;entryX=0.25;entryY=0;entryDx=0;entryDy=0;endArrow=none;endFill=0;" parent="1" source="9sg7S3EA_mHytwgNz2Ep-39" target="HcXDAk4co6BFIyga0vMn-27" edge="1">
          <mxGeometry relative="1" as="geometry" />
        </mxCell>
        <mxCell id="9sg7S3EA_mHytwgNz2Ep-39" value="nome" style="ellipse;whiteSpace=wrap;html=1;fontStyle=4" parent="1" vertex="1">
          <mxGeometry x="650" y="520.5" width="60" height="30" as="geometry" />
        </mxCell>
        <mxCell id="9sg7S3EA_mHytwgNz2Ep-43" style="edgeStyle=orthogonalEdgeStyle;rounded=0;orthogonalLoop=1;jettySize=auto;html=1;endArrow=none;endFill=0;" parent="1" source="9sg7S3EA_mHytwgNz2Ep-42" edge="1">
          <mxGeometry relative="1" as="geometry">
            <mxPoint x="370" y="600" as="targetPoint" />
          </mxGeometry>
        </mxCell>
        <mxCell id="9sg7S3EA_mHytwgNz2Ep-42" value="nome" style="ellipse;whiteSpace=wrap;html=1;fontStyle=0" parent="1" vertex="1">
          <mxGeometry x="260" y="575" width="60" height="30" as="geometry" />
        </mxCell>
        <mxCell id="9sg7S3EA_mHytwgNz2Ep-46" style="edgeStyle=orthogonalEdgeStyle;rounded=0;orthogonalLoop=1;jettySize=auto;html=1;entryX=0;entryY=0.75;entryDx=0;entryDy=0;endArrow=none;endFill=0;" parent="1" source="9sg7S3EA_mHytwgNz2Ep-45" target="HcXDAk4co6BFIyga0vMn-15" edge="1">
          <mxGeometry relative="1" as="geometry" />
        </mxCell>
        <mxCell id="9sg7S3EA_mHytwgNz2Ep-45" value="codigo" style="ellipse;whiteSpace=wrap;html=1;fontStyle=4" parent="1" vertex="1">
          <mxGeometry x="235" y="620" width="90" height="30" as="geometry" />
        </mxCell>
        <mxCell id="9sg7S3EA_mHytwgNz2Ep-48" value="n" style="text;html=1;align=center;verticalAlign=middle;resizable=0;points=[];autosize=1;strokeColor=none;fillColor=none;" parent="1" vertex="1">
          <mxGeometry x="425" y="260" width="30" height="30" as="geometry" />
        </mxCell>
        <mxCell id="9sg7S3EA_mHytwgNz2Ep-52" value="n" style="text;html=1;align=center;verticalAlign=middle;resizable=0;points=[];autosize=1;strokeColor=none;fillColor=none;" parent="1" vertex="1">
          <mxGeometry x="425" y="370" width="30" height="30" as="geometry" />
        </mxCell>
        <mxCell id="9sg7S3EA_mHytwgNz2Ep-53" value="n" style="text;html=1;align=center;verticalAlign=middle;resizable=0;points=[];autosize=1;strokeColor=none;fillColor=none;" parent="1" vertex="1">
          <mxGeometry x="340" y="395" width="30" height="30" as="geometry" />
        </mxCell>
        <mxCell id="9sg7S3EA_mHytwgNz2Ep-54" value="n" style="text;html=1;align=center;verticalAlign=middle;resizable=0;points=[];autosize=1;strokeColor=none;fillColor=none;" parent="1" vertex="1">
          <mxGeometry x="190" y="395" width="30" height="30" as="geometry" />
        </mxCell>
        <mxCell id="9sg7S3EA_mHytwgNz2Ep-55" value="n" style="text;html=1;align=center;verticalAlign=middle;resizable=0;points=[];autosize=1;strokeColor=none;fillColor=none;" parent="1" vertex="1">
          <mxGeometry x="425" y="450" width="30" height="30" as="geometry" />
        </mxCell>
        <mxCell id="9sg7S3EA_mHytwgNz2Ep-56" value="n" style="text;html=1;align=center;verticalAlign=middle;resizable=0;points=[];autosize=1;strokeColor=none;fillColor=none;" parent="1" vertex="1">
          <mxGeometry x="425" y="548" width="30" height="30" as="geometry" />
        </mxCell>
        <mxCell id="9sg7S3EA_mHytwgNz2Ep-57" value="n" style="text;html=1;align=center;verticalAlign=middle;resizable=0;points=[];autosize=1;strokeColor=none;fillColor=none;" parent="1" vertex="1">
          <mxGeometry x="370" y="630" width="30" height="30" as="geometry" />
        </mxCell>
        <mxCell id="9sg7S3EA_mHytwgNz2Ep-58" value="n" style="text;html=1;align=center;verticalAlign=middle;resizable=0;points=[];autosize=1;strokeColor=none;fillColor=none;" parent="1" vertex="1">
          <mxGeometry x="450" y="630" width="30" height="30" as="geometry" />
        </mxCell>
        <mxCell id="9sg7S3EA_mHytwgNz2Ep-59" value="n" style="text;html=1;align=center;verticalAlign=middle;resizable=0;points=[];autosize=1;strokeColor=none;fillColor=none;" parent="1" vertex="1">
          <mxGeometry x="480" y="575" width="30" height="30" as="geometry" />
        </mxCell>
        <mxCell id="9sg7S3EA_mHytwgNz2Ep-60" value="n" style="text;html=1;align=center;verticalAlign=middle;resizable=0;points=[];autosize=1;strokeColor=none;fillColor=none;" parent="1" vertex="1">
          <mxGeometry x="650" y="575" width="30" height="30" as="geometry" />
        </mxCell>
        <mxCell id="OVF_8G7hKfbTYnZr6m1k-3" style="edgeStyle=orthogonalEdgeStyle;rounded=0;orthogonalLoop=1;jettySize=auto;html=1;endArrow=none;endFill=0;" parent="1" source="OVF_8G7hKfbTYnZr6m1k-2" target="HcXDAk4co6BFIyga0vMn-48" edge="1">
          <mxGeometry relative="1" as="geometry" />
        </mxCell>
        <mxCell id="OVF_8G7hKfbTYnZr6m1k-2" value="data" style="ellipse;whiteSpace=wrap;html=1;fontStyle=4" parent="1" vertex="1">
          <mxGeometry x="510" y="310" width="60" height="30" as="geometry" />
        </mxCell>
      </root>
    </mxGraphModel>
  </diagram>
</mxfile>
